# xmcd
#
# Track frame offsets: 
#        150
#        23152
#        35275
#        49977
#        64527
#        77122
#        88135
#        101485
#        112947
#        125292
#        137202
#        149997
#        160915
#        172927
#        185232
#        199427
#        210120
#        220877
#        232092
#        244720
#        256550
#        267220
#        280087
#        289165
#        301977
#        316627
#
# Disc length: 4389 seconds
#
# Revision: 5
# Processed by: cddbd v1.5.2PL0 Copyright (c) Steve Scherf et al.
# Submitted via: ExactAudioCopy v1.1
#
DISCID=7811231a
DTITLE=Various Artist - The Aladdin Records Story [CD1]
DYEAR=1994
DGENRE=R&B
TTITLE0=Illinois Jaquet and His All Stars - Flying Home (Part I and Part I
TTITLE0=I) (mono)
TTITLE1=Helen Humes with The Bill Doggett Octet - Be Baba Leba (mono)
TTITLE2=Charles Brown with Johnny Moore's Three Blazers - Drifting Blu
TTITLE2=es (mono)
TTITLE3=Jo-Jo Adams with Maxwell Davis And His Band - When I'm In My T
TTITLE3=ea (The Reefer No.) (mono)
TTITLE4=Wynonie Harris and His All-Stars Accompanied By The Harlemaires 
TTITLE4=/ (I Don't Stand A) Ghost Of A Chance (mono)
TTITLE5=Dirty Red - Mother Fuyer (mono)
TTITLE6=Helen Humes with Bill Doggett Octet - He May Be Your Man (mono
TTITLE6=)
TTITLE7=The Trumpeteers - Milky White Way (mono)
TTITLE8=Clarence Gatemouth Brown with Maxwell Davis And His Orchestra 
TTITLE8=/ Guitar In My Hand (mono)
TTITLE9=The Five Keys - Too Late (mono)
TTITLE10=Amos Milburn - Chicken Shack Boogie (mono)
TTITLE11=The Four Rockets - Loch Lomond (mono)
TTITLE12=Lightnin' Hopkins - Shotgun Blues (mono)
TTITLE13=The Robins - Around About Midnite (mono)
TTITLE14=The Five Keys - The Glory Of Love (mono)
TTITLE15=Calvin Boze and His All-Stars - Safronia B (mono)
TTITLE16=Charles Brown Trio - Trouble Blues (mono)
TTITLE17=Peppermint Harris with Maxwell Davis And His All-Stars - I Go
TTITLE17=t Loaded (mono)
TTITLE18=Floyd Dixon and His Orchestra - Sad Journey Blues (mono)
TTITLE19=Louis Jordan and His Tympany Five - Dad Gum Ya Hide Boy (mono)
TTITLE20=The Five Keys - Hucklebuck With Jimmy (mono)
TTITLE21=Harold Burrage  with Jimmy Brinkley and His Orchestra - Way Dow
TTITLE21=n Boogie (mono)
TTITLE22=Billie Holiday with Tiny Grimes Sextet - Blue Turning Grey Ov
TTITLE22=er You (mono)
TTITLE23=Shirley and Lee - Feel So Good (mono)
TTITLE24=Floyd Dixon with Johnny Moore's Three Blazers - Telephone Blu
TTITLE24=es (mono)
TTITLE25=Gene and Eunice with Johnny's Combo - Ko Ko Mo (I Love You So) 
TTITLE25=(mono)
EXTD=
EXTT0=
EXTT1=
EXTT2=
EXTT3=
EXTT4=
EXTT5=
EXTT6=
EXTT7=
EXTT8=
EXTT9=
EXTT10=
EXTT11=
EXTT12=
EXTT13=
EXTT14=
EXTT15=
EXTT16=
EXTT17=
EXTT18=
EXTT19=
EXTT20=
EXTT21=
EXTT22=
EXTT23=
EXTT24=
EXTT25=
PLAYORDER=
